{
  "source": "C:\\Users\\Peter\\Desktop\\stuff\\MIUN\\quantitative_research\\video_compression\\videos\\BVI-HD\\BVI-HD_CDVL_videos\\ORIG\\KineticFastPainting_1920x1080_60fps.mp4",
  "output": "C:\\Users\\Peter\\Desktop\\stuff\\MIUN\\quantitative_research\\video_compression\\compressed_videos\\BVI-HD\\av1\\8\\KineticFastPainting_1920x1080_60fps_av1.mkv",
  "codec": "av1",
  "ok": "Input #0, mov,mp4,m4a,3gp,3g2,mj2, from 'C:\\Users\\Peter\\Desktop\\stuff\\MIUN\\quantitative_research\\video_compression\\videos\\BVI-HD\\BVI-HD_CDVL_videos\\ORIG\\KineticFastPainting_1920x1080_60fps.mp4':\n  Metadata:\n    major_brand     : isom\n    minor_version   : 512\n    compatible_brands: isomiso2avc1mp41\n    encoder         : Lavf54.28.101\n  Duration: 00:00:05.00, start: 0.000000, bitrate: 477980 kb/s\n  Stream #0:0[0x1](und): Video: h264 (High 4:4:4 Predictive) (avc1 / 0x31637661), yuv420p(progressive), 1920x1080, 477974 kb/s, 60 fps, 60 tbr, 60 tbn (default)\n    Metadata:\n      handler_name    : VideoHandler\n      vendor_id       : [0][0][0][0]\n[out#0/matroska @ 000001b23c619000] Codec AVOption b:a (set bitrate (in bits/s)) has not been used for any stream. The most likely reason is either wrong type (e.g. a video option with no video streams) or that it is a private option of some decoder which was not actually used for any stream.\nStream mapping:\n  Stream #0:0 -> #0:0 (h264 (native) -> av1 (libsvtav1))\nPress [q] to stop, [?] for help\nSvt[info]: -------------------------------------------\nSvt[info]: SVT [version]:\tSVT-AV1 Encoder Lib v3.1.0-19-g6ecfe8ec\nSvt[info]: SVT [build]  :\tGCC 15.2.0\t 64 bit\nSvt[info]: LIB Build date: Aug 17 2025 11:37:13\nSvt[info]: -------------------------------------------\nSvt[info]: Level of Parallelism: 5\nSvt[info]: Number of PPCS 93\nSvt[info]: [asm level on system : up to avx2]\nSvt[info]: [asm level selected : up to avx2]\nSvt[info]: -------------------------------------------\nSvt[info]: SVT [config]: main profile\ttier (auto)\tlevel (auto)\nSvt[info]: SVT [config]: width / height / fps numerator / fps denominator \t\t: 1920 / 1080 / 60 / 1\nSvt[info]: SVT [config]: bit-depth / color format \t\t\t\t\t: 8 / YUV420\nSvt[info]: SVT [config]: preset / tune / pred struct \t\t\t\t\t: 4 / PSNR / random access\nSvt[info]: SVT [config]: gop size / mini-gop size / key-frame type \t\t\t: 321 / 16 / key frame\nSvt[info]: SVT [config]: BRC mode / target bitrate (kbps)\t\t\t\t: VBR / 8000 \nSvt[info]: SVT [config]: AQ mode / Variance Boost \t\t\t\t\t: 2 / 0\nSvt[info]: SVT [config]: sharpness / luminance-based QP bias \t\t\t\t: 0 / 0\nSvt[info]: SVT [config]: QP scale compress strength \t\t\t\t\t: 0\nSvt[info]: -------------------------------------------\nOutput #0, matroska, to 'C:\\Users\\Peter\\Desktop\\stuff\\MIUN\\quantitative_research\\video_compression\\compressed_videos\\BVI-HD\\av1\\8\\KineticFastPainting_1920x1080_60fps_av1.mkv':\n  Metadata:\n    major_brand     : isom\n    minor_version   : 512\n    compatible_brands: isomiso2avc1mp41\n    encoder         : Lavf62.3.100\n  Stream #0:0(und): Video: av1 (AV01 / 0x31305641), yuv420p(tv, progressive), 1920x1080, q=2-31, 8000 kb/s, 60 fps, 1k tbn (default)\n    Metadata:\n      encoder         : Lavc62.11.100 libsvtav1\n      handler_name    : VideoHandler\n      vendor_id       : [0][0][0][0]\n    Side data:\n      cpb: bitrate max/min/avg: 0/0/8000000 buffer size: 8000000 vbv_delay: N/A\nframe=    0 fps=0.0 q=0.0 size=       0KiB time=N/A bitrate=N/A speed=N/A elapsed=0:00:01.04    \nframe=    0 fps=0.0 q=0.0 size=       0KiB time=N/A bitrate=N/A speed=N/A elapsed=0:00:01.58    \nframe=    0 fps=0.0 q=0.0 size=       0KiB time=N/A bitrate=N/A speed=N/A elapsed=0:00:02.12    \nframe=    0 fps=0.0 q=0.0 size=       0KiB time=N/A bitrate=N/A speed=N/A elapsed=0:00:02.64    \nframe=    1 fps=0.3 q=24.0 size=       1KiB time=00:00:00.00 bitrate=N/A speed=   0x elapsed=0:00:03.16    \nframe=    1 fps=0.3 q=24.0 size=       1KiB time=00:00:00.00 bitrate=N/A speed=   0x elapsed=0:00:03.70    \nframe=    3 fps=0.7 q=35.0 size=       1KiB time=00:00:00.03 bitrate= 170.9kbits/s speed=0.00784x elapsed=0:00:04.25    \nframe=    7 fps=1.5 q=34.0 size=       1KiB time=00:00:00.10 bitrate=  57.0kbits/s speed=0.021x elapsed=0:00:04.76    \nframe=    9 fps=1.7 q=31.0 size=       1KiB time=00:00:00.13 bitrate=  42.7kbits/s speed=0.0252x elapsed=0:00:05.29    \nframe=   12 fps=2.1 q=34.0 size=       1KiB time=00:00:00.18 bitrate=  31.1kbits/s speed=0.0314x elapsed=0:00:05.83    \nframe=   17 fps=2.7 q=25.0 size=       1KiB time=00:00:00.26 bitrate=  21.4kbits/s speed=0.042x elapsed=0:00:06.34    \nframe=   21 fps=3.1 q=34.0 size=       1KiB time=00:00:00.33 bitrate=  17.1kbits/s speed=0.0486x elapsed=0:00:06.85    \nframe=   24 fps=3.2 q=37.0 size=       1KiB time=00:00:00.38 bitrate=  14.9kbits/s speed=0.0517x elapsed=0:00:07.41    \nframe=   28 fps=3.5 q=35.0 size=       1KiB time=00:00:00.45 bitrate=  12.7kbits/s speed=0.0565x elapsed=0:00:07.96    \nframe=   34 fps=4.0 q=38.0 size=       1KiB time=00:00:00.55 bitrate=  10.4kbits/s speed=0.0648x elapsed=0:00:08.48    \nframe=   38 fps=4.2 q=38.0 size=       1KiB time=00:00:00.61 bitrate=   9.2kbits/s speed=0.0685x elapsed=0:00:09.00    \nframe=   41 fps=4.3 q=32.0 size=       1KiB time=00:00:00.66 bitrate=   8.5kbits/s speed=0.07x elapsed=0:00:09.51    \nframe=   45 fps=4.5 q=33.0 size=       1KiB time=00:00:00.73 bitrate=   7.8kbits/s speed=0.0731x elapsed=0:00:10.03    \nframe=   50 fps=4.7 q=38.0 size=       1KiB time=00:00:00.81 bitrate=   7.0kbits/s speed=0.0773x elapsed=0:00:10.56    \nframe=   54 fps=4.9 q=38.0 size=       1KiB time=00:00:00.88 bitrate=   6.4kbits/s speed=0.0796x elapsed=0:00:11.09    \nframe=   58 fps=5.0 q=38.0 size=       1KiB time=00:00:00.95 bitrate=   6.0kbits/s speed=0.0818x elapsed=0:00:11.61    \nframe=   63 fps=5.2 q=35.0 size=       1KiB time=00:00:01.03 bitrate=   5.5kbits/s speed=0.085x elapsed=0:00:12.15    \nframe=   68 fps=5.4 q=38.0 size=       1KiB time=00:00:01.11 bitrate=   5.1kbits/s speed=0.088x elapsed=0:00:12.68    \nframe=   71 fps=5.4 q=37.0 size=       1KiB time=00:00:01.16 bitrate=   4.9kbits/s speed=0.0881x elapsed=0:00:13.24    \nframe=   74 fps=5.4 q=38.0 size=       1KiB time=00:00:01.21 bitrate=   4.7kbits/s speed=0.0884x elapsed=0:00:13.76    \nframe=   80 fps=5.6 q=39.0 size=       1KiB time=00:00:01.31 bitrate=   4.3kbits/s speed=0.0921x elapsed=0:00:14.29    \nframe=   84 fps=5.7 q=39.0 size=       1KiB time=00:00:01.38 bitrate=   4.1kbits/s speed=0.0934x elapsed=0:00:14.80    \nframe=   87 fps=5.7 q=36.0 size=       1KiB time=00:00:01.43 bitrate=   4.0kbits/s speed=0.0935x elapsed=0:00:15.32    \nframe=   91 fps=5.7 q=36.0 size=       1KiB time=00:00:01.50 bitrate=   3.8kbits/s speed=0.0945x elapsed=0:00:15.87    \nframe=   97 fps=5.9 q=27.0 size=       1KiB time=00:00:01.60 bitrate=   3.6kbits/s speed=0.0976x elapsed=0:00:16.39    \nframe=  101 fps=6.0 q=34.0 size=       1KiB time=00:00:01.66 bitrate=   3.4kbits/s speed=0.0985x elapsed=0:00:16.91    \nframe=  104 fps=6.0 q=40.0 size=       1KiB time=00:00:01.71 bitrate=   3.3kbits/s speed=0.0985x elapsed=0:00:17.43    \nframe=  109 fps=6.1 q=34.0 size=       1KiB time=00:00:01.80 bitrate=   3.2kbits/s speed= 0.1x elapsed=0:00:17.96    \nframe=  115 fps=6.2 q=38.0 size=       1KiB time=00:00:01.90 bitrate=   3.0kbits/s speed=0.103x elapsed=0:00:18.51    \nframe=  119 fps=6.3 q=38.0 size=       1KiB time=00:00:01.96 bitrate=   2.9kbits/s speed=0.103x elapsed=0:00:19.03    \nframe=  123 fps=6.3 q=38.0 size=       1KiB time=00:00:02.03 bitrate=   2.8kbits/s speed=0.104x elapsed=0:00:19.57    \nframe=  129 fps=6.4 q=28.0 size=       1KiB time=00:00:02.13 bitrate=   2.7kbits/s speed=0.106x elapsed=0:00:20.11    \nframe=  133 fps=6.4 q=38.0 size=       1KiB time=00:00:02.20 bitrate=   2.6kbits/s speed=0.107x elapsed=0:00:20.63    \nframe=  136 fps=6.4 q=40.0 size=       1KiB time=00:00:02.23 bitrate=   2.6kbits/s speed=0.105x elapsed=0:00:21.17    \nframe=  141 fps=6.5 q=35.0 size=       1KiB time=00:00:02.33 bitrate=   2.4kbits/s speed=0.107x elapsed=0:00:21.70    \nframe=  147 fps=6.6 q=38.0 size=       1KiB time=00:00:02.43 bitrate=   2.3kbits/s speed=0.109x elapsed=0:00:22.24    \nframe=  151 fps=6.6 q=38.0 size=       1KiB time=00:00:02.50 bitrate=   2.3kbits/s speed=0.11x elapsed=0:00:22.80    \nframe=  155 fps=6.6 q=38.0 size=       1KiB time=00:00:02.56 bitrate=   2.2kbits/s speed=0.11x elapsed=0:00:23.34    \nframe=  161 fps=6.7 q=29.0 size=       1KiB time=00:00:02.66 bitrate=   2.1kbits/s speed=0.112x elapsed=0:00:23.88    \nframe=  165 fps=6.8 q=37.0 size=       1KiB time=00:00:02.73 bitrate=   2.1kbits/s speed=0.112x elapsed=0:00:24.39    \nframe=  169 fps=6.8 q=35.0 size=       1KiB time=00:00:02.80 bitrate=   2.0kbits/s speed=0.112x elapsed=0:00:24.91    \nframe=  173 fps=6.8 q=33.0 size=       1KiB time=00:00:02.86 bitrate=   2.0kbits/s speed=0.113x elapsed=0:00:25.46    \nframe=  178 fps=6.8 q=39.0 size=       1KiB time=00:00:02.95 bitrate=   1.9kbits/s speed=0.113x elapsed=0:00:26.01    \nframe=  182 fps=6.9 q=39.0 size=       1KiB time=00:00:03.01 bitrate=   1.9kbits/s speed=0.114x elapsed=0:00:26.54    \nframe=  186 fps=6.9 q=39.0 size=       1KiB time=00:00:03.08 bitrate=   1.8kbits/s speed=0.114x elapsed=0:00:27.06    \nframe=  192 fps=7.0 q=40.0 size=       1KiB time=00:00:03.18 bitrate=   1.8kbits/s speed=0.115x elapsed=0:00:27.58    \nframe=  196 fps=7.0 q=40.0 size=       1KiB time=00:00:03.25 bitrate=   1.8kbits/s speed=0.116x elapsed=0:00:28.12    \nframe=  200 fps=7.0 q=40.0 size=       1KiB time=00:00:03.30 bitrate=   1.7kbits/s speed=0.115x elapsed=0:00:28.64    \nframe=  205 fps=7.0 q=34.0 size=       1KiB time=00:00:03.40 bitrate=   1.7kbits/s speed=0.117x elapsed=0:00:29.15    \nframe=  211 fps=7.1 q=40.0 size=       1KiB time=00:00:03.50 bitrate=   1.6kbits/s speed=0.118x elapsed=0:00:29.67    \nframe=  217 fps=7.2 q=34.0 size=       1KiB time=00:00:03.60 bitrate=   1.6kbits/s speed=0.119x elapsed=0:00:30.19    \nframe=  221 fps=7.2 q=35.0 size=       1KiB time=00:00:03.66 bitrate=   1.6kbits/s speed=0.119x elapsed=0:00:30.71    \nframe=  227 fps=7.3 q=39.0 size=       1KiB time=00:00:03.76 bitrate=   1.5kbits/s speed=0.121x elapsed=0:00:31.24    \nframe=  233 fps=7.3 q=35.0 size=       1KiB time=00:00:03.86 bitrate=   1.5kbits/s speed=0.122x elapsed=0:00:31.75    \nframe=  237 fps=7.3 q=35.0 size=       1KiB time=00:00:03.90 bitrate=   1.5kbits/s speed=0.121x elapsed=0:00:32.28    \nframe=  241 fps=7.3 q=29.0 size=       1KiB time=00:00:04.00 bitrate=   1.4kbits/s speed=0.122x elapsed=0:00:32.81    \nframe=  247 fps=7.4 q=39.0 size=       1KiB time=00:00:04.10 bitrate=   1.4kbits/s speed=0.123x elapsed=0:00:33.32    \nframe=  251 fps=7.4 q=38.0 size=       1KiB time=00:00:04.16 bitrate=   1.4kbits/s speed=0.123x elapsed=0:00:33.85    \nframe=  255 fps=7.4 q=37.0 size=       1KiB time=00:00:04.23 bitrate=   1.3kbits/s speed=0.123x elapsed=0:00:34.38    \nframe=  261 fps=7.5 q=37.0 size=       1KiB time=00:00:04.33 bitrate=   1.3kbits/s speed=0.124x elapsed=0:00:34.92    \nframe=  265 fps=7.5 q=35.0 size=       1KiB time=00:00:04.40 bitrate=   1.3kbits/s speed=0.124x elapsed=0:00:35.45    \nframe=  269 fps=7.5 q=36.0 size=       1KiB time=00:00:04.46 bitrate=   1.3kbits/s speed=0.124x elapsed=0:00:35.98    \nframe=  275 fps=7.5 q=40.0 size=       1KiB time=00:00:04.56 bitrate=   1.2kbits/s speed=0.125x elapsed=0:00:36.52    \nframe=  281 fps=7.6 q=36.0 size=       1KiB time=00:00:04.66 bitrate=   1.2kbits/s speed=0.126x elapsed=0:00:37.04    \nframe=  285 fps=7.6 q=40.0 size=       1KiB time=00:00:04.73 bitrate=   1.2kbits/s speed=0.126x elapsed=0:00:37.55    \n[out#0/matroska @ 000001b23c619000] video:5094KiB audio:0KiB subtitle:0KiB other streams:0KiB global headers:0KiB muxing overhead: 0.041869%\nframe=  300 fps=7.9 q=40.0 Lsize=    5096KiB time=00:00:04.98 bitrate=8377.5kbits/s speed=0.131x elapsed=0:00:38.05    \n",
  "seconds": 38.49866080284119,
  "probe_out": {}
}